{"title":"Age Of The Dragons 2011 XViD BRRip DTRG - SAFCuk009","uid":6265539,"size":1227742604,"categoryP":"video","categoryS":"movies","magnet":"?xt=urn:btih:0e0af03659bb07c778da97319b5cbfa6a65ff7e8&amp;dn=Age+Of+The+Dragons+2011+XViD+BRRip+DTRG+-+SAFCuk009&amp;tr=udp%3A%2F%2Ftracker.openbittorrent.com%3A80&amp;tr=udp%3A%2F%2Fopen.demonii.com%3A1337&amp;tr=udp%3A%2F%2Ftracker.coppersurfer.tk%3A6969&amp;tr=udp%3A%2F%2Fexodus.desync.com%3A6969","seeders":0,"leechers":1,"uploader":"SAFCukO09","files":3,"time":1300892125,"description":"Format                           : AVI\nFormat/Info                      : Audio Video Interleave\nFile size                        : 1.14 GiB\nDuration                         : 1h 34mn\nOverall bit rate                 : 1 730 Kbps\nWriting application              : VirtualDubMod 1.5.10.2 (build 2540/release)\nWriting library                  : VirtualDub build 32839/release\n\nVideo\nID                               : 0\nFormat                           : MPEG-4 Visual\nFormat profile                   : Advanced Simple@L5\nFormat settings, BVOP            : Yes\nFormat settings, QPel            : No\nFormat settings, GMC             : No warppoints\nFormat settings, Matrix          : Custom\nCodec ID                         : XVID\nCodec ID/Hint                    : XviD\nDuration                         : 1h 34mn\nBit rate                         : 1 273 Kbps\nWidth                            : 720 pixels\nHeight                           : 306 pixels\nDisplay aspect ratio             : 2.35:1\nFrame rate                       : 23.976 fps\nColor space                      : YUV\nChroma subsampling               : 4:2:0\nBit depth                        : 8 bits\nScan type                        : Progressive\nBits/(Pixel*Frame)               : 0.241\nStream size                      : 861 MiB (74%)\nWriting library                  : XviD 1.2.1 (UTC 2008-12-04)\n\nAudio\nID                               : 1\nFormat                           : AC-3\nFormat/Info                      : Audio Coding 3\nMode extension                   : CM (complete main)\nCodec ID                         : 2000\nDuration                         : 1h 34mn\nBit rate mode                    : Constant\nBit rate                         : 448 Kbps\nChannel(s)                       : 6 channels\nChannel positions                : Front: L C R, Side: L R, LFE\nSampling rate                    : 48.0 KHz\nBit depth                        : 16 bits\nStream size                      : 303 MiB (26%)\nAlignment                        : Split accross interleaves\nInterleave, duration             : 42 ms (1.00 video frame)\nInterleave, preload duration     : 500 ms\n\n\n\n &lt;a href=&quot;\nhttp://www.imdb.com/title/tt1594917/&quot; rel=&quot;nofollow&quot; target=&quot;_NEW&quot;&gt;\nhttp://www.imdb.com/title/tt1594917/&lt;/a&gt;\n\n\n\nStoryline\n\nAge of the Dragons is a re-imagining of Herman Melville's classic novel Moby Dick. Set in a mythical realm where Captain Ahab and crew hunt dragons for the vitriol that powers their world, Ishmael, a charismatic harpooner joins their quest. Ahab's adopted daughter Rachel, beautiful and tough, runs the hunting vessel. Ahab's obsession is to seek revenge on a great &quot;White Dragon&quot; that slaughtered his family when he was young and left his body scarred and mauled, drives the crew deeper into the heart of darkness. In the White Dragon's lair Ahab's secrets are revealed and Rachel must choose between following him on his dark quest or escaping to a new life with Ishmael.\n\n\n\n\n &lt;a href=&quot;\nhttp://img38.imageshack.us/img38/9953/vlcsnap2011032312h54m39.png&quot; rel=&quot;nofollow&quot; target=&quot;_NEW&quot;&gt;\nhttp://img38.imageshack.us/img38/9953/vlcsnap2011032312h54m39.png&lt;/a&gt;\n &lt;a href=&quot;\nhttp://img715.imageshack.us/img715/2927/vlcsnap2011032312h54m48.png&quot; rel=&quot;nofollow&quot; target=&quot;_NEW&quot;&gt;\nhttp://img715.imageshack.us/img715/2927/vlcsnap2011032312h54m48.png&lt;/a&gt;\n &lt;a href=&quot;\nhttp://img5.imageshack.us/img5/269/vlcsnap2011032312h51m10.png&quot; rel=&quot;nofollow&quot; target=&quot;_NEW&quot;&gt;\nhttp://img5.imageshack.us/img5/269/vlcsnap2011032312h51m10.png&lt;/a&gt;\n &lt;a href=&quot;\nhttp://img851.imageshack.us/img851/500/vlcsnap2011032312h52m03.png&quot; rel=&quot;nofollow&quot; target=&quot;_NEW&quot;&gt;\nhttp://img851.imageshack.us/img851/500/vlcsnap2011032312h52m03.png&lt;/a&gt;\n &lt;a href=&quot;\nhttp://img20.imageshack.us/img20/4299/vlcsnap2011032312h53m41.png&quot; rel=&quot;nofollow&quot; target=&quot;_NEW&quot;&gt;\nhttp://img20.imageshack.us/img20/4299/vlcsnap2011032312h53m41.png&lt;/a&gt;\n\n\nSource...............: 720p BluRay x264-7SinS ............... Thanks \n\n\n\nGreetz to Imagine ,Flawl3ss,DiLLoN,BDK,NOiR,TOXiCiNK,THC,Ez,Rx,\n\n\n\n\n\n\n","torrent":{"xt":"urn:btih:0e0af03659bb07c778da97319b5cbfa6a65ff7e8","amp;dn":"Age+Of+The+Dragons+2011+XViD+BRRip+DTRG+-+SAFCuk009","amp;tr":["udp%3A%2F%2Ftracker.openbittorrent.com%3A80","udp%3A%2F%2Fopen.demonii.com%3A1337","udp%3A%2F%2Ftracker.coppersurfer.tk%3A6969","udp%3A%2F%2Fexodus.desync.com%3A6969"],"infoHash":"0e0af03659bb07c778da97319b5cbfa6a65ff7e8","infoHashBuffer":{"type":"Buffer","data":[14,10,240,54,89,187,7,199,120,218,151,49,155,92,191,166,166,95,247,232]},"announce":[],"urlList":[]}}